<svg xmlns="http://www.w3.org/2000/svg" viewBox="0 0 277 58"><path d="M20.6 33.2V12.1h21.1C38 5.5 30.8 1 22.6 1 10.4 1 .6 10.9.6 23c0 12.2 9.9 22 22 22 8.5 0 15.9-4.8 19.6-11.9H20.6z" fill-rule="evenodd" clip-rule="evenodd" fill="#ec1c24"/><path d="M50 25.4v21.1H28.9c3.8 6.5 10.9 11 19.1 11 12.2 0 22-9.9 22-22 0-12.2-9.9-22-22-22-8.5 0-15.9 4.9-19.6 11.9H50z" fill-rule="evenodd" clip-rule="evenodd" fill="#fff"/><path d="M98.5 37.3c-.5.3-1.7.5-3.3.5-4.9 0-7.1-3.1-7.1-6.6 0-4.6 3.4-7 7.3-7 1.5 0 2.7.3 3.3.6l-.7 2.8c-.6-.2-1.4-.5-2.4-.5-2 0-3.8 1.2-3.8 3.9 0 2.4 1.4 3.9 3.8 3.9.8 0 1.8-.2 2.3-.4l.6 2.8zm12.1-5h-4.7v2.4h5.3v2.9h-8.8V24.5h8.5v2.9h-5v2.1h4.7v2.8zm4.5-7.7c1-.2 2.3-.3 4.3-.3 1.9 0 3.3.4 4.2 1.1.9.7 1.5 1.8 1.5 3.2 0 1.3-.4 2.5-1.3 3.2-1.1.9-2.6 1.4-4.4 1.4h-.9v4.5H115V24.6zm3.5 5.8h.8c1.4 0 2.2-.7 2.2-1.8 0-1-.6-1.6-2-1.6-.5 0-.9 0-1 .1v3.3zm10.2-5.8c.8-.1 2.5-.3 4.2-.3 1.9 0 3 .1 4 .6s1.8 1.4 1.8 2.7c0 1.1-.6 2.2-2.1 2.8 1.6.4 2.6 1.6 2.6 3.2 0 1.2-.6 2.2-1.5 2.9-1 .7-2.6 1.2-5.4 1.2-1.6 0-2.8-.1-3.5-.2V24.6zm3.5 4.9h.7c1.5 0 2.2-.5 2.2-1.4 0-.8-.6-1.2-1.8-1.2-.6 0-.9 0-1.2.1v2.5zm0 5.6h1c1.2 0 2.2-.5 2.2-1.6s-1-1.5-2.3-1.5h-.8v3.1zm14.3-10.6v13.1H143V24.5h3.6zm14.2 12.8c-.5.3-1.7.5-3.3.5-4.9 0-7.1-3.1-7.1-6.6 0-4.6 3.4-7 7.3-7 1.5 0 2.7.3 3.3.6l-.7 2.8c-.6-.2-1.4-.5-2.4-.5-2 0-3.8 1.2-3.8 3.9 0 2.4 1.4 3.9 3.8 3.9.8 0 1.8-.2 2.3-.4l.6 2.8zm19.5 0c-.5.3-1.7.5-3.3.5-4.9 0-7.1-3.1-7.1-6.6 0-4.6 3.4-7 7.3-7 1.5 0 2.7.3 3.3.6l-.7 2.8c-.6-.2-1.4-.5-2.4-.5-2 0-3.8 1.2-3.8 3.9 0 2.4 1.4 3.9 3.8 3.9.8 0 1.8-.2 2.3-.4l.6 2.8zm6.6-9.9h-3.4v-3h10.3v3h-3.4v10.2h-3.5V27.4zm22.3 3.5c0 4.2-2.5 6.9-6.6 6.9s-6.3-3.1-6.3-6.7c0-3.8 2.5-6.9 6.5-6.9 4.2 0 6.4 3.2 6.4 6.7zm-9.2.1c0 2.5 1.1 4 2.8 4 1.7 0 2.7-1.7 2.7-4s-1-4-2.7-4c-1.8 0-2.8 1.6-2.8 4zm23.2-6.5v13.1h-3.5V27.3h-2.4V30c0 3.6-.5 6-2.6 7.1-.7.4-1.7.7-2.9.7l-.4-2.8c.7-.1 1.2-.4 1.5-.7.7-.7.9-2 .9-4v-5.8h9.4zm7.6 0v3.2c0 2.1-.1 4.3-.2 6.1h.1c.7-1.6 1.6-3.5 2.3-4.8l2.2-4.5h3.6v13.1h-3.2v-3.1c0-2 0-3.9.2-5.6h-.1c-.6 1.6-1.4 3.5-2.1 4.8l-2 4h-4.1V24.5h3.3zm16 0v10.3h4V24.5h3.5v10.4l1.4.1-.2 6.1h-2.7l-.2-3.4h-9.4V24.5h3.6zm11.4 13.1c.3-.5.5-1 .7-1.6.5-1.5.8-2.9 1.8-3.8.3-.3.6-.5 1.1-.7v-.1c-1.4-.3-2.7-1.2-2.7-3.2 0-1.2.6-2.2 1.4-2.8 1.1-.8 2.8-1 4.5-1 1.6 0 3 .1 4 .3v13h-3.5v-4.9h-.5c-.5 0-.9.2-1.2.4-.8.7-1.1 2.3-1.5 3.3-.1.4-.3.7-.5 1.2h-3.6zm7.4-10.5c-.2 0-.5-.1-1-.1-1.1 0-2 .5-2 1.6s1 1.6 2.1 1.6c.3 0 .6 0 .9-.1v-3zM91.1 45.3v10.8h-1.4V45.3h1.4zm8.6 0v4.5h5.2v-4.5h1.4v10.8h-1.4V51h-5.2v5.1h-1.4V45.3h1.4zm15.2 0v4.5h5.2v-4.5h1.4v10.8h-1.4V51h-5.2v5.1h-1.4V45.3h1.4zm23.1 5.3c0 3.7-2.3 5.7-5 5.7-2.9 0-4.8-2.2-4.8-5.5 0-3.4 2.1-5.7 5-5.7s4.8 2.3 4.8 5.5zm-8.4.2c0 2.3 1.2 4.4 3.5 4.4s3.5-2 3.5-4.5c0-2.2-1.1-4.4-3.4-4.4-2.4 0-3.6 2.1-3.6 4.5zm15-5.3c.6-.1 1.6-.2 2.5-.2 1.4 0 2.3.2 2.9.8.6.4.9 1.1.9 1.9 0 1.1-.7 2-1.8 2.4 1 .2 2.2 1.1 2.2 2.7 0 .9-.4 1.6-.9 2.2-.7.7-2 1-3.7 1-1 0-1.7-.1-2.2-.1V45.5zm1.4 4.4h1.3c1.5 0 2.3-.8 2.3-1.8 0-1.2-.9-1.8-2.4-1.8-.6 0-1 0-1.2.1v3.5zm0 5.2c.3 0 .7.1 1.2.1 1.4 0 2.8-.5 2.8-2.1 0-1.5-1.3-2.1-2.8-2.1H146v4.1zm17.6-4h-4.2V55h4.7v1.2H158V45.3h5.8v1.2h-4.4v3.4h4.2v1.2zm8.5-5.8v4.5c0 1.7 0 3.1-.1 4.6.5-1.1 1.2-2.3 2-3.6l3.5-5.6h1.4V56h-1.3v-4.6c0-1.7 0-3 .1-4.4-.5 1.2-1.3 2.4-2 3.6l-3.4 5.4h-1.5V45.3h1.3zm1.7-2.2c.1.5.2 1 1 1 .7 0 .9-.5 1-1h1.1c-.1 1.1-.7 1.7-2.1 1.7-1.3 0-1.9-.7-2-1.7h1zm13.7 2.2V55h3.5v-9.6h1.4V55h3.5v-9.6h1.4v10.8h-11.1V45.3h1.3zm18.3 0v4.5h5.2v-4.5h1.4v10.8H211V51h-5.2v5.1h-1.4V45.3h1.4z" fill="#fff"/></svg>