<svg xmlns="http://www.w3.org/2000/svg" viewBox="0 0 277 56"><path d="M20.2 32.4v-21h21.1C37.5 4.8 30.4.3 22.2.3 10 .3.2 10.2.2 22.3c0 12.2 9.9 22 22 22 8.5 0 15.9-4.8 19.6-11.9H20.2z" fill-rule="evenodd" clip-rule="evenodd" fill="#ec1c24"/><path d="M49.6 24.6v21.1H28.5c3.8 6.6 10.9 11.1 19.1 11.1 12.2 0 22-9.9 22-22 0-12.2-9.9-22-22-22-8.5 0-15.9 4.9-19.6 11.9h21.6z" fill-rule="evenodd" clip-rule="evenodd" fill="#fff"/><path d="M97.4 34.4c-.5.3-1.7.5-3.3.5-4.9 0-7.1-3.1-7.1-6.6 0-4.6 3.4-7 7.3-7 1.5 0 2.7.3 3.3.6l-.7 2.8c-.6-.2-1.4-.5-2.4-.5-2 0-3.8 1.2-3.8 3.9 0 2.4 1.4 3.9 3.8 3.9.8 0 1.8-.2 2.3-.4l.6 2.8zm12.1-5h-4.7v2.4h5.3v2.9h-8.8V21.6h8.5v2.9h-5v2.1h4.7v2.8zm4.5-7.6c1-.2 2.3-.3 4.3-.3 1.9 0 3.3.4 4.2 1.1.9.7 1.5 1.8 1.5 3.2 0 1.3-.4 2.5-1.3 3.2-1.1.9-2.6 1.4-4.4 1.4h-.9v4.5H114V21.8zm3.5 5.7h.8c1.4 0 2.2-.7 2.2-1.8 0-1-.6-1.6-2-1.6-.5 0-.9 0-1 .1v3.3zm9.6-5.8c.8-.1 2.5-.3 4.2-.3 1.9 0 3 .1 4 .6s1.8 1.4 1.8 2.7c0 1.1-.6 2.2-2.1 2.7 1.6.4 2.6 1.6 2.6 3.2 0 1.2-.6 2.2-1.5 2.9-1 .7-2.6 1.2-5.4 1.2-1.6 0-2.8-.1-3.5-.2V21.7zm3.5 4.9h.7c1.5 0 2.2-.5 2.2-1.4 0-.8-.6-1.2-1.8-1.2-.6 0-.9 0-1.2.1v2.5zm0 5.6h1c1.2 0 2.2-.5 2.2-1.6s-1-1.5-2.3-1.5h-.8v3.1zm14-10.6v3.2c0 2.1-.1 4.3-.2 6.1h.1c.7-1.6 1.6-3.5 2.3-4.8l2.2-4.5h3.6v13.1h-3.2v-3.1c0-2 0-3.9.2-5.6h-.1c-.6 1.6-1.4 3.5-2.1 4.8l-2 4h-4.1V21.6h3.3zm22.3 12.8c-.5.3-1.7.5-3.3.5-4.9 0-7.1-3.1-7.1-6.6 0-4.6 3.4-7 7.3-7 1.5 0 2.7.3 3.3.6l-.7 2.8c-.6-.2-1.4-.5-2.4-.5-2 0-3.8 1.2-3.8 3.9 0 2.4 1.4 3.9 3.8 3.9.8 0 1.8-.2 2.3-.4l.6 2.8zm19.5 0c-.5.3-1.7.5-3.3.5-4.9 0-7.1-3.1-7.1-6.6 0-4.6 3.4-7 7.3-7 1.5 0 2.7.3 3.3.6l-.7 2.8c-.6-.2-1.4-.5-2.4-.5-2 0-3.8 1.2-3.8 3.9 0 2.4 1.4 3.9 3.8 3.9.8 0 1.8-.2 2.3-.4l.6 2.8zm6.6-9.9h-3.4v-3H200v3h-3.4v10.2H193V24.5zm22.3 3.5c0 4.2-2.5 6.9-6.6 6.9s-6.3-3.1-6.3-6.7c0-3.8 2.5-6.9 6.5-6.9 4.2 0 6.4 3.2 6.4 6.7zm-9.2.1c0 2.5 1.1 4 2.8 4 1.7 0 2.7-1.7 2.7-4s-1-4-2.7-4c-1.7 0-2.8 1.6-2.8 4zm23.2-6.5v13.1h-3.5V24.4h-2.4v2.7c0 3.6-.5 6-2.6 7.1-.7.4-1.7.7-2.9.7l-.4-2.8c.7-.1 1.2-.4 1.5-.7.7-.7.9-2 .9-4v-5.9h9.4zm7.6 0v3.2c0 2.1-.1 4.3-.2 6.1h.1c.7-1.6 1.6-3.5 2.3-4.8l2.2-4.5h3.6v13.1h-3.2v-3.1c0-2 0-3.9.2-5.6h-.1c-.6 1.6-1.4 3.5-2.1 4.8l-2 4h-4.1V21.6h3.3zm16 0v10.3h4V21.6h3.5V32l1.4.1-.2 6.1H259l-.2-3.4h-9.4V21.6h3.5zm16 10.1l-.7 3h-3.6l3.8-13.1h4.7l3.9 13.1h-3.8l-.8-3h-3.5zm2.9-2.6l-.6-2.4c-.2-.7-.4-1.8-.7-2.6-.2.8-.4 1.9-.6 2.6l-.6 2.4h2.5zM90.9 44.8v4.5c0 1.7 0 3.1-.1 4.6.5-1.1 1.2-2.3 2-3.6l3.5-5.6h1.4v10.8h-1.3V51c0-1.7 0-3 .1-4.4-.5 1.2-1.3 2.4-2 3.6l-3.4 5.4h-1.5V44.8h1.3zm15.4 0v4.5h5.2v-4.5h1.4v10.8h-1.4v-5.1h-5.2v5.1h-1.4V44.8h1.4zm15.2 0v4.5h5.2v-4.5h1.4v10.8h-1.4v-5.1h-5.2v5.1h-1.4V44.8h1.4zm23.1 5.3c0 3.7-2.3 5.7-5 5.7-2.9 0-4.8-2.2-4.8-5.5 0-3.4 2.1-5.7 5-5.7s4.8 2.3 4.8 5.5zm-8.4.1c0 2.3 1.2 4.4 3.5 4.4s3.5-2 3.5-4.5c0-2.2-1.1-4.4-3.4-4.4-2.4 0-3.6 2.2-3.6 4.5zm15-5.3c.6-.1 1.6-.2 2.5-.2 1.4 0 2.3.2 2.9.8.6.4.9 1.1.9 1.9 0 1.1-.7 2-1.8 2.4 1 .2 2.2 1.1 2.2 2.7 0 .9-.4 1.6-.9 2.2-.7.7-2 1-3.7 1-1 0-1.7-.1-2.2-.1V44.9zm1.4 4.5h1.3c1.5 0 2.3-.8 2.3-1.8 0-1.2-.9-1.8-2.4-1.8-.6 0-1 0-1.2.1v3.5zm0 5.1c.3 0 .7.1 1.2.1 1.4 0 2.8-.5 2.8-2.1 0-1.5-1.3-2.1-2.8-2.1h-1.2v4.1zm17.6-4H166v3.9h4.7v1.2h-6.1V44.8h5.8V46H166v3.4h4.2v1.1zm8.4-5.7v4.5c0 1.7 0 3.1-.1 4.6.5-1.1 1.2-2.3 2-3.6l3.5-5.6h1.4v10.8h-1.3V51c0-1.7 0-3 .1-4.4-.5 1.2-1.3 2.4-2 3.6l-3.4 5.4h-1.5V44.8h1.3zm1.8-2.3c.1.5.2 1 1 1 .7 0 .9-.5 1-1h1.1c-.1 1.1-.7 1.7-2.1 1.7-1.3 0-1.9-.7-2-1.7h1zm13.6 2.3v9.6h3.5v-9.6h1.4v9.6h3.5v-9.6h1.4v10.8h-11.1V44.8h1.3zm18.4 0v4.5h5.2v-4.5h1.4v10.8h-1.4v-5.1h-5.2v5.1H211V44.8h1.4z" fill="#fff"/></svg>